<svg xmlns="http://www.w3.org/2000/svg" width="400" height="400" fill="none"><path fill="#FCE3C3" d="M200 400c110.457 0 200-89.543 200-200S310.457 0 200 0 0 89.543 0 200s89.543 200 200 200Z"/><mask id="a" width="400" height="400" x="0" y="0" maskUnits="userSpaceOnUse" style="mask-type:luminance"><path fill="#fff" d="M200 400c110.457 0 200-89.543 200-200S310.457 0 200 0 0 89.543 0 200s89.543 200 200 200Z"/></mask><g mask="url(#a)"><path fill="#674C2F" d="M298.004 293.226c-8.796 46.595-18.187 92.952-24.249 140.023-5.705 44.574-11.173 89.268-18.186 133.604-36.492.832-72.983-.713-109.475-3.566-36.254-2.852-72.151-7.845-106.266-21.158-18.067-7.013-35.54-15.69-52.181-25.674C3.93 492.8 13.916 465.461 24.852 439.073c11.648-28.29 21.633-57.293 30.072-86.771 18.187-64.306 25.438-128.731 29.717-195.058 2.496-37.799 13.313-77.5 38.75-106.503C148.947 21.619 191.738 4.978 229.3 19.123c23.178 8.796 42.078 26.982 54.796 48.378 6.063 10.103 10.698 21.039 14.264 32.212.951 2.972 1.902 6.062 2.615 9.034 2.615 9.509 4.517 19.256 5.825 29.003 2.139 15.215 3.09 30.43 3.209 45.644 0 36.849-5.23 73.697-12.005 109.832Z"/><path fill="#FFCFCA" d="M267.455 300.833c-4.992 3.923-11.53 5.468-17.711 6.776-7.488 1.664-14.977 3.328-22.703 3.922-14.977 1.07-29.003-2.615-43.742-5.824-.714-8.558-1.427-17.236-2.259-25.794-.951-10.817-1.902-21.514-3.803-32.212a143.306 143.306 0 0 0-2.14-9.747c-1.902-7.964-4.279-15.928-6.656-23.773-1.902-6.538-3.923-12.957-5.825-19.494 4.279 3.209 8.083 4.754 13.075 6.894 21.039 8.677 42.316 16.522 63.712 24.13 6.419 2.258 12.956 4.517 19.732 5.349l4.398 37.561 3.922 32.212Z"/><path fill="#F9BFBB" d="M263.652 268.621c-23.417-3.209-46.477-9.866-67.872-20.088-6.776-3.21-13.908-6.657-20.683-10.579-1.902-7.964-4.279-15.928-6.656-23.773-1.902-6.538-3.923-12.957-5.825-19.494 4.279 3.209 8.083 4.754 13.075 6.894 21.039 8.677 42.316 16.522 63.712 24.13 6.419 2.258 12.956 4.516 19.732 5.349l4.517 37.561Z"/><path fill="#FFCFCA" d="M299.549 208.118c-3.685 12.838-9.39 24.724-19.969 33.282-9.391 7.489-21.277 12.006-33.283 12.838-13.313.951-26.507-2.259-38.512-8.083-5.943-2.853-11.649-6.419-16.998-10.46-9.152-7.013-17.235-15.453-24.367-24.605-11.53-14.858-21.515-32.094-27.458-50.399-6.894-20.683-8.677-42.673-2.377-63.95 2.615-8.677 6.537-16.878 11.886-24.248 22.228-31.143 65.257-40.89 98.777-22.465 17.473 9.628 31.499 25.437 39.939 43.266 2.734 5.706 5.111 11.53 7.251 17.474 11.173 31.023 14.145 65.732 5.111 97.35Z"/><path fill="#674C2F" d="M298.241 99.713c-10.46-15.571-21.039-31.737-34.946-44.099-12.481-11.054-27.814-18.543-44.456-20.088-31.499-2.853-68.347 9.034-88.316 34.59-10.104 12.837-14.74 29.003-15.334 44.931-.713 16.047 2.615 30.192 6.656 45.763 30.43-2.853 57.056-22.228 72.746-46.476 11.768-18.068 18.067-38.632 21.396-59.79 9.39 12.244 19.85 23.655 32.093 32.926 15.334 11.649 33.639 19.97 52.895 21.277-.951-3.09-1.783-6.062-2.734-9.034Z"/><path fill="#8B4145" d="M416.037 647.801c-9.866-14.026-31.262-41.247-31.262-41.247s13.313-177.822-23.297-253.658c-23.298-24.011-45.882-45.644-79.165-51.944-24.367 40.89-31.737 77.738-35.778 125.046-5.349 62.88-6.894 129.207 21.515 185.549 7.845 15.571 17.829 30.073 27.933 44.218 26.745 37.561 56.817 73.696 90.337 106.027 9.034 8.678 22.585 10.698 33.639 4.755l32.213-17.235c10.579-5.587 14.501-18.781 8.796-29.241-14.145-25.794-28.409-48.616-44.931-72.27Z"/><path fill="#8B4145" d="M319.043 322.704c-1.783-4.754-16.166-14.977-16.166-14.977s-86.296-17.354-127.186-12.243c-20.445 2.615-40.652 7.132-60.264 13.67-21.515 7.132-40.296 15.69-58.007 29.954-18.067 14.62-34.114 31.618-49.21 49.21-7.37 8.439-14.501 17.117-21.514 25.794-20.326 24.961-41.722 49.923-58.839 77.381-24.605 39.582-42.434 90.219-18.662 134.436 14.264 26.507 37.562 46.952 60.622 65.733 27.339 22.228 57.412 42.316 89.505 57.174 9.034 4.16 19.85 1.07 24.962-7.489 6.894-11.292 12.6-23.297 17.83-35.421 3.209-7.37 2.615-15.809-1.427-22.822-21.752-38.156-48.853-73.935-82.254-108.762 24.605-23.416 48.972-48.14 68.823-75.479 1.901 23.535 2.615 47.189 1.426 70.724-.357 6.776-.713 14.026 2.496 19.97 4.16 7.607 12.956 11.054 21.158 13.669 59.789 19.019 124.809 21.277 185.905 7.251 12.362-2.853 25.319-6.894 33.045-17.592 7.013-9.747 8.677-22.347 10.698-33.877a455.371 455.371 0 0 0 6.062-59.551c1.902-60.027-7.845-120.529-29.003-176.753Z"/><path fill="#5B3132" d="M284.096 292.394c-.475-1.783-1.069-3.685-1.426-5.468-1.426-7.251-.119-16.403-8.083-21.396-3.922-2.496-8.677-2.02-13.313-2.139-5.349-.119-10.698 0-15.928-.119-11.173-.238-22.346-1.427-33.401-3.328-5.587-1.07-11.173-2.259-16.641-3.804-4.992-1.308-9.985-3.566-15.096-4.042-3.685-.356-7.726.595-9.866 3.091-1.426 1.664-1.783 3.685-2.139 5.824-1.902 10.223-3.685 20.683-2.14 31.024.476 3.21 1.427 6.538 4.042 8.915 5.824 5.468 18.661 7.132 26.507 8.796 26.031 5.587 53.845 6.3 78.332-2.734 2.971-1.07 5.943-2.377 7.964-4.517 2.971-2.852 2.139-6.418 1.188-10.103Z"/><path fill="#8B4145" d="M178.188 302.854c-.476 0-.714-.357-.833-.713-2.733-15.215-2.971-30.668-.713-45.763.119-.476.595-.714 1.07-.714.476.119.951.476.832.951-2.258 14.977-2.139 30.192.713 45.288.119.475-.237.832-.832.951h-.237ZM186.27 305.707c-.594-.119-.951-.476-.832-.951 1.07-6.895.951-14.145.713-21.04l-.475-23.059c0-.714-.119-.832-.238-.951-.475-.238-.594-.832-.238-1.189.238-.357.833-.475 1.308-.238 1.07.595 1.07 1.783 1.07 2.259l.475 23.06c.119 7.013.357 14.263-.713 21.276 0 .595-.475.951-1.07.833ZM196.374 307.846c-.476-.119-.832-.475-.832-.832-.119-14.977.356-30.073 1.307-44.931 0-.475.476-.832 1.07-.713.476 0 .951.475.951.951-.951 14.858-1.426 29.954-1.307 44.931-.119.238-.595.594-1.189.594ZM204.576 309.51c-.476-.119-.832-.475-.832-.951a348.526 348.526 0 0 0 .713-44.574c0-.476.356-.832.951-.832.475 0 .951.356.951.832a350.204 350.204 0 0 1-.714 44.693 1.14 1.14 0 0 1-1.069.832ZM213.609 312.007c-.475-.119-.951-.476-.832-.951.832-6.657 1.07-14.027.713-23.655v-.95c-.119-3.329-.356-6.657.119-9.985.119-1.189.357-2.259.595-3.447.475-2.14.951-4.279.832-6.3 0-.476.356-.832.951-.832.475 0 .95.356.95.832.119 2.258-.356 4.517-.832 6.656-.237 1.07-.475 2.259-.594 3.329-.475 3.209-.356 6.537-.119 9.747v.95c.476 9.747.238 17.117-.713 23.892-.119.476-.594.832-1.07.714ZM221.454 311.293c-.594-.119-.951-.475-.832-.951 2.378-14.026 3.21-28.29 2.378-42.554 0-.475.356-.832.951-.832.594 0 .951.357.951.832.832 14.383.118 28.766-2.378 42.792-.119.475-.594.832-1.07.713ZM232.033 310.936c-.118 0-.118 0 0 0-.594-.118-.951-.475-.832-.95.595-3.21.238-6.657-.119-9.866-.118-1.545-.356-3.091-.356-4.755-.119-3.447.238-7.013.475-10.46.476-5.705 1.07-11.53-.594-17.117-.119-.475.238-.832.713-.95.476-.119 1.07.237 1.189.594 1.664 5.824 1.188 11.886.594 17.711-.356 3.328-.594 6.894-.475 10.222l.356 4.636c.357 3.328.713 6.894 0 10.222 0 .595-.475.832-.951.713ZM240.235 310.342c-.475-.118-.832-.475-.832-.951 1.308-13.788 1.664-27.814 1.189-41.721 0-.476.356-.832.951-.832.475 0 .951.356.951.832.475 13.907.118 28.052-1.189 41.84 0 .595-.476.951-1.07.832 0 0 .119 0 0 0ZM249.625 308.322c-.475-.119-.951-.476-.832-.951 1.308-12.6 2.734-25.556.238-38.275-.119-.475.238-.832.832-.951.476 0 1.07.238 1.07.713 2.496 12.957 1.189 26.032-.238 38.751 0 .475-.475.713-1.07.713ZM257.708 309.629c-.475-.119-.832-.475-.832-.832l.119-39.701c0-.475.476-.832.951-.832s.951.357.951.832l-.119 39.701c0 .594-.357.951-1.07.832.119 0 .119 0 0 0ZM267.455 307.133c-.475-.119-.832-.475-.832-.832.476-12.362.119-24.843-.951-37.205 0-.475.357-.832.832-.832.476 0 .951.357 1.07.832 1.189 12.481 1.545 24.962.951 37.443-.119.356-.475.594-1.07.594ZM276.727 303.567h-.238c-.476-.119-.832-.594-.594-1.07 1.188-2.971.594-6.181.118-9.628-.237-1.545-.475-3.209-.594-4.754-.119-1.308 0-2.497 0-3.804 0-1.189.119-2.496 0-3.804-.238-4.041-1.783-8.083-3.328-12.005-.119-.476.119-.951.594-1.07.476-.119 1.07.119 1.189.594 1.545 4.042 3.09 8.202 3.328 12.481.119 1.308 0 2.615 0 3.923 0 1.188-.119 2.496 0 3.685.119 1.545.357 3.09.594 4.635.595 3.447 1.189 7.013-.118 10.342-.119.356-.476.475-.951.475Z"/><path fill="#FFCFCA" d="M175.454 205.028c-9.629 8.439-23.773 11.292-35.898 7.132-10.222-3.566-18.543-12.006-21.99-22.228-.594-1.902-1.07-3.685-1.426-5.706-.594-3.447-.594-6.894.238-10.222 2.02-8.32 9.39-14.739 17.829-16.284 8.44-1.546 17.355 1.783 23.179 7.964l7.013 15.095 11.055 24.249Z"/><path fill="#5B3132" d="M313.218 606.198c4.755-2.734 9.628-5.111 14.027-7.845 4.398-2.734 8.439-6.062 10.935-10.341 1.308-2.14 2.14-4.517 2.853-7.013.594-2.497.951-4.874.594-7.37-.238-2.496-.713-5.23-1.07-7.964-.356-2.734-.713-5.349-.951-8.083-.475-5.349-.832-10.817-.95-16.166-.238-5.348-.238-10.816-.119-16.165.237-10.817.832-21.515 1.426-32.332 1.189-21.514 2.853-43.029 2.377-64.543a485.161 485.161 0 0 0-5.349-64.306c3.566 21.276 5.587 42.791 6.419 64.306.832 21.514-.475 43.148-1.307 64.662-.476 10.698-.832 21.515-.832 32.213 0 5.349 0 10.698.356 16.047.238 5.349.594 10.697 1.308 16.046.356 2.615.713 5.349 1.069 7.964.357 2.615.951 5.23 1.308 8.083.357 2.853.119 5.825-.594 8.558-.595 2.734-1.664 5.468-3.091 7.964-1.426 2.497-3.209 4.874-5.349 6.776-2.139 2.02-4.398 3.685-6.656 5.111-4.636 2.972-9.509 5.349-14.026 8.083l-2.378-3.685ZM86.78 332.57c5.23 3.804 9.628 8.796 13.194 14.264 3.566 5.587 6.062 11.649 8.083 17.949 2.021 6.3 3.209 12.718 4.041 19.256.832 6.419 1.189 12.956 1.308 19.494s-.238 13.075-.713 19.494c-.595 6.537-1.427 12.956-2.734 19.256-2.377 12.719-6.3 25.318-12.362 36.729 4.398-12.124 7.37-24.605 9.152-37.323.833-6.3 1.546-12.719 2.021-19.138.476-6.418.713-12.718.476-19.137 0-6.419-.357-12.718-1.07-19.137-.357-3.21-.713-6.3-1.308-9.509-.594-3.091-1.188-6.181-1.901-9.272-.833-3.09-1.665-6.062-2.853-9.034-.476-1.545-1.189-2.971-1.783-4.398-.713-1.426-1.308-2.852-2.02-4.279-3.091-5.468-6.895-10.698-11.53-15.215ZM165.112 309.51c-.475 0-.832-.237-.951-.713-.237-.594.119-1.189.595-1.307 1.307-.476 2.734-.951 4.041-1.427.594-.238 1.189.119 1.308.595.237.594-.119 1.188-.595 1.307-1.307.475-2.734.951-4.041 1.426-.119 0-.238.119-.357.119Z"/><path fill="#5B3132" d="M71.803 726.727c-.238 0-.356 0-.594-.119-2.377-1.545-4.755-3.09-7.251-4.635a1.135 1.135 0 0 1-.357-1.427 1.134 1.134 0 0 1 1.427-.356c2.377 1.545 4.754 3.09 7.25 4.635.476.357.595.951.357 1.427-.119.237-.475.475-.832.475Zm-14.383-9.39c-.237 0-.356 0-.594-.119-2.377-1.545-4.755-3.209-7.132-4.755-.475-.356-.594-.951-.238-1.426.357-.476.951-.594 1.427-.238 2.377 1.546 4.754 3.21 7.132 4.755.475.356.594.951.356 1.426-.237.238-.594.357-.95.357Zm-14.263-9.509a.907.907 0 0 1-.595-.238c-2.377-1.664-4.754-3.21-7.013-4.874-.475-.356-.594-.95-.237-1.426.356-.475.95-.594 1.426-.238 2.377 1.664 4.636 3.21 7.013 4.874.475.356.594.951.238 1.426-.12.238-.476.476-.832.476Zm-14.026-9.866a.907.907 0 0 1-.595-.238 147.62 147.62 0 0 1-6.894-5.111c-.475-.357-.594-1.07-.238-1.545.357-.476 1.07-.595 1.546-.238 2.258 1.664 4.635 3.447 6.894 5.111.475.357.594 1.07.237 1.545-.237.357-.594.476-.95.476Zm-13.67-10.341a.907.907 0 0 1-.594-.238l-6.776-5.349c-.475-.357-.475-1.07-.118-1.545.356-.476 1.07-.476 1.545-.119 2.14 1.783 4.398 3.566 6.656 5.349.476.356.595 1.069.238 1.545-.357.238-.713.357-.951.357ZM2.148 676.923c-.238 0-.475-.119-.713-.238-2.258-1.902-4.398-3.804-6.538-5.587-.475-.356-.475-1.07-.119-1.545.357-.475 1.07-.475 1.546-.119 2.14 1.902 4.279 3.685 6.418 5.587.476.356.476 1.07.12 1.545-.12.119-.476.357-.714.357Zm-12.837-11.411c-.238 0-.476-.119-.713-.238-2.14-1.902-4.16-3.804-6.3-5.825-.476-.356-.476-1.069 0-1.545.356-.475 1.07-.475 1.545 0 2.14 1.902 4.16 3.923 6.3 5.825.475.356.475 1.069.119 1.545-.476.119-.714.238-.951.238Zm-12.6-11.649c-.238 0-.476-.119-.713-.357-2.14-2.02-4.16-4.16-6.181-6.062a1.25 1.25 0 0 1 0-1.545 1.249 1.249 0 0 1 1.545 0l6.062 6.062c.476.357.476 1.07 0 1.545-.119.238-.475.357-.713.357Zm-12.005-12.243c-.238 0-.595-.119-.833-.357a137.874 137.874 0 0 1-5.705-6.419c-.357-.475-.357-1.069.119-1.545.475-.356 1.07-.356 1.545.119 1.783 2.021 3.685 4.16 5.706 6.419a1.25 1.25 0 0 1 0 1.545c-.357.119-.595.238-.832.238Zm-11.174-13.075c-.356 0-.594-.119-.832-.357-1.783-2.377-3.566-4.636-5.111-6.894-.357-.476-.238-1.189.238-1.427.475-.356 1.188-.237 1.426.238 1.545 2.259 3.21 4.517 4.992 6.894.357.476.238 1.189-.237 1.546h-.476Zm-9.747-14.027c-.356 0-.713-.237-.95-.475-1.546-2.496-2.853-5.111-4.16-7.607-.239-.476 0-1.189.475-1.427.475-.237 1.188 0 1.426.476 1.189 2.496 2.615 4.992 4.041 7.488.357.476.12 1.189-.356 1.427-.12 0-.238.118-.476.118Zm-7.488-15.452c-.476 0-.832-.238-.951-.713-1.07-2.734-1.902-5.468-2.615-8.202-.119-.594.238-1.189.713-1.307.594-.119 1.189.237 1.307.713.714 2.615 1.546 5.349 2.616 8.083.237.594-.12 1.188-.595 1.426h-.475Zm-4.28-16.522c-.475 0-.95-.357-1.07-.951 0-.357-.118-.713-.118-1.07-.357-2.496-.475-4.992-.475-7.607 0-.595.475-1.07 1.07-1.07.594 0 1.07.475 1.07 1.07 0 2.496.237 4.873.475 7.369 0 .357.119.713.119 1.07.118.594-.357 1.07-.951 1.189h-.12Zm-.237-17.117s-.119 0 0 0c-.713-.119-1.07-.594-1.07-1.189.238-2.852.713-5.705 1.308-8.558.118-.594.713-.951 1.307-.832s.951.713.832 1.308c-.594 2.852-1.07 5.586-1.307 8.32-.12.595-.595.951-1.07.951Zm3.447-16.76h-.357c-.594-.119-.832-.713-.713-1.307.832-2.615 1.783-5.468 2.853-8.202.238-.594.832-.832 1.426-.594.595.237.833.832.595 1.426-1.07 2.734-2.021 5.468-2.734 8.083-.238.356-.594.594-1.07.594Zm6.181-16.047c-.119 0-.357 0-.476-.119-.594-.237-.713-.832-.475-1.426 1.189-2.496 2.377-5.111 3.804-7.726.237-.476.95-.713 1.426-.476.476.238.713.951.476 1.427-1.308 2.615-2.615 5.23-3.685 7.607-.357.476-.713.713-1.07.713Zm7.845-15.214c-.119 0-.356 0-.475-.119-.476-.238-.714-.951-.357-1.427 1.307-2.377 2.734-4.754 4.398-7.369.357-.476.951-.713 1.426-.357.476.357.714.951.357 1.426-1.545 2.616-2.972 4.993-4.28 7.37-.356.357-.712.476-1.069.476Zm8.796-14.621c-.238 0-.356 0-.594-.119a1.134 1.134 0 0 1-.357-1.426c1.546-2.377 3.09-4.874 4.636-7.251a1.134 1.134 0 0 1 1.426-.356c.476.356.595.95.357 1.426-1.545 2.377-3.09 4.755-4.636 7.251-.119.237-.475.475-.832.475Zm9.272-14.501c-.238 0-.357 0-.595-.119a1.135 1.135 0 0 1-.356-1.427c1.545-2.377 3.21-4.754 4.754-7.132.357-.475.951-.594 1.427-.237.475.356.594.951.237 1.426-1.545 2.377-3.209 4.755-4.754 7.132 0 .238-.357.357-.713.357Zm9.628-14.145a.908.908 0 0 1-.595-.238c-.475-.357-.594-.951-.237-1.426 1.664-2.378 3.328-4.636 4.992-7.014.357-.475.95-.594 1.545-.237.476.356.595.951.238 1.545-1.664 2.377-3.328 4.636-4.873 7.013-.357.238-.714.357-1.07.357Zm9.984-14.026a.907.907 0 0 1-.594-.238c-.475-.357-.594-1.07-.238-1.545 1.664-2.259 3.329-4.636 5.111-6.895.357-.475 1.07-.594 1.546-.237.475.356.594 1.069.237 1.545-1.664 2.258-3.328 4.636-5.11 6.894-.357.357-.714.476-.952.476Zm10.104-13.789a.907.907 0 0 1-.594-.238c-.476-.356-.595-1.069-.238-1.545 1.664-2.258 3.447-4.517 5.23-6.894.357-.475 1.07-.594 1.545-.238.476.357.595 1.07.238 1.546-1.783 2.258-3.447 4.516-5.23 6.775-.238.475-.594.594-.951.594Zm10.46-13.55a.907.907 0 0 1-.594-.238c-.476-.357-.595-1.07-.238-1.545 1.783-2.259 3.566-4.517 5.23-6.776.357-.475 1.07-.594 1.545-.237.476.356.595 1.069.238 1.545-1.783 2.258-3.566 4.517-5.23 6.775-.357.357-.594.476-.951.476Zm10.58-13.551c-.239 0-.476-.119-.714-.238-.476-.356-.595-1.07-.119-1.545 1.783-2.258 3.566-4.517 5.349-6.657.357-.475 1.07-.475 1.545-.118.476.356.476 1.069.12 1.545-1.784 2.258-3.567 4.517-5.35 6.656-.238.238-.475.357-.832.357Zm10.697-13.313c-.238 0-.476-.119-.713-.238-.476-.356-.476-1.069-.12-1.545 1.784-2.258 3.567-4.398 5.35-6.656.356-.476 1.07-.476 1.545-.119.476.356.476 1.07.119 1.545-1.783 2.258-3.566 4.398-5.349 6.656-.238.238-.476.357-.832.357Zm10.817-13.313c-.238 0-.476-.119-.714-.238-.475-.356-.475-1.069-.118-1.545 1.783-2.258 3.566-4.398 5.467-6.656.357-.476 1.07-.476 1.546-.119.475.356.475 1.07.119 1.545-1.783 2.259-3.566 4.398-5.468 6.657-.238.237-.476.356-.832.356Zm10.816-13.313c-.237 0-.475-.119-.713-.237-.475-.357-.475-1.07-.119-1.546l5.468-6.656c.357-.476 1.07-.476 1.545-.119.476.357.476 1.07.12 1.545l-5.469 6.657c-.118.237-.475.356-.832.356Zm10.936-13.194c-.238 0-.476-.119-.713-.238-.476-.356-.476-1.069-.119-1.545a177.951 177.951 0 0 1 5.705-6.419c.357-.475 1.07-.475 1.546-.118.475.356.475 1.069.118 1.545-1.782 1.902-3.565 4.041-5.586 6.419-.357.237-.594.356-.951.356Zm11.649-12.599c-.238 0-.595-.119-.713-.357a1.25 1.25 0 0 1 0-1.545c2.14-2.14 4.279-4.042 6.418-5.825.476-.356 1.07-.356 1.546.119.356.476.356 1.07-.12 1.545-2.02 1.664-4.16 3.685-6.3 5.706a1.283 1.283 0 0 1-.831.357Zm13.194-10.936c-.357 0-.713-.119-.832-.476-.357-.475-.238-1.188.237-1.426a86.805 86.805 0 0 1 7.37-4.517c.476-.238 1.189-.119 1.427.357.237.475.118 1.188-.357 1.426a107.738 107.738 0 0 0-7.25 4.517c-.12.119-.358.119-.595.119Zm14.977-8.44c-.357 0-.832-.237-.951-.594-.238-.475 0-1.188.475-1.426a125.476 125.476 0 0 1 7.845-3.566c.595-.238 1.189 0 1.427.594s0 1.189-.594 1.426c-2.853 1.189-5.349 2.378-7.727 3.566h-.475Zm15.69-6.775c-.475 0-.832-.238-.951-.713-.238-.594 0-1.189.594-1.426 1.902-.714 3.685-1.427 5.587-2.14l2.496-.951c.595-.238 1.189.119 1.427.594.237.595-.119 1.189-.595 1.427l-2.496.951c-1.902.713-3.685 1.426-5.586 2.139-.238.119-.357.119-.476.119Zm16.047-6.062c-.476 0-.832-.238-.951-.713-.238-.594.119-1.189.594-1.427 2.734-.95 5.349-2.02 8.083-2.971.594-.238 1.189.119 1.426.594.238.594-.118 1.189-.594 1.427-2.734.95-5.349 2.02-8.083 2.971-.237 0-.356.119-.475.119Zm16.047-6.062c-.476 0-.832-.238-.951-.713-.238-.595.119-1.189.594-1.427a221.342 221.342 0 0 0 8.083-2.971c.594-.238 1.189.119 1.307.594.238.594-.118 1.189-.594 1.308-2.734.95-5.349 1.901-8.083 2.971-.119.238-.238.238-.356.238Z"/><path fill="#1F3C49" d="M227.754 156.888c-.951-5.944-4.992-10.342-8.915-9.629-3.922.714-6.299 6.063-5.23 12.006.951 5.943 4.993 10.341 8.915 9.628 3.923-.594 6.3-6.062 5.23-12.005ZM281.957 151.539c-.951-5.825-4.874-10.104-8.677-9.391-3.804.595-6.063 5.944-5.112 11.768.951 5.824 4.874 10.104 8.678 9.39 3.803-.594 6.062-5.824 5.111-11.767ZM206.121 133.709c-.594 0-1.189-.238-1.664-.832-.714-.951-.595-2.259.356-2.972 5.825-4.636 14.145-5.705 20.921-2.734 1.069.476 1.545 1.783 1.069 2.853-.475 1.07-1.783 1.545-2.852 1.07-5.349-2.378-12.006-1.546-16.523 2.139-.356.357-.832.476-1.307.476ZM261.987 128.716c-.594 0-1.307-.356-1.664-.832-.713-.951-.475-2.258.476-2.971 5.468-4.042 13.194-4.755 19.375-1.902a2.037 2.037 0 0 1 .951 2.853 2.038 2.038 0 0 1-2.853.951c-4.755-2.259-10.817-1.665-14.977 1.426-.476.357-.951.475-1.308.475ZM249.031 171.27c1.427-1.545 3.804-2.258 6.062-1.902 2.259.357 4.398 2.021 5.587 4.161 1.189 2.02 1.307 4.754.238 6.894-.951 2.139-2.853 3.685-4.993 4.041 1.427-1.426 2.259-3.09 2.615-4.754.357-1.664 0-3.21-.713-4.636-.713-1.426-1.902-2.496-3.328-3.209-1.664-.714-3.447-.951-5.468-.595Z"/><path fill="#EA5353" d="M280.887 192.191v.118c1.07 6.538-.357 13.076-3.804 18.306-4.041 6.3-10.579 10.935-18.661 12.243-8.678 1.426-16.998-1.308-22.823-6.657-4.16-3.803-7.25-9.033-8.201-14.977v-.119l53.489-8.914Z"/><path fill="#FF948F" d="M277.202 210.615c-4.041 6.299-10.579 10.935-18.662 12.243-8.677 1.426-16.997-1.308-22.822-6.657 2.021-1.188 4.16-2.258 6.3-3.209 8.321-3.566 17.473-5.706 26.388-4.517a52.847 52.847 0 0 1 8.796 2.14Z"/><path fill="#fff" d="M276.014 193.022c-.595.714-1.308 1.308-1.902 1.902-9.985 9.272-29.598 14.977-40.771 5.23l42.673-7.132ZM222.287 153.559c-3.329 0-3.329 5.111 0 5.111 3.328.119 3.328-5.111 0-5.111ZM276.727 147.854c-3.328 0-3.328 5.111 0 5.111 3.328.119 3.328-5.111 0-5.111Z"/><circle cx="155.128" cy="202.056" r="6.538" fill="#fff"/></g></svg>