<svg width="434" height="149" viewBox="0 0 434 149" fill="none" xmlns="http://www.w3.org/2000/svg">
<path d="M212.06 0H190.681L172.191 78.5837H187.214L176.813 148.5L208.593 65.8716H192.992L212.06 0Z" fill="url(#paint0_linear_135_71)"/>
<path d="M433.944 26.5798H375.006L361.716 122.498H407.055C415.169 122.498 422.028 116.488 423.094 108.445L424.142 100.541H390.029L391.955 86.0953H426.056L429.119 62.9825H395.037L396.963 48.537H431.034L433.944 26.5798Z" fill="white"/>
<path d="M318.957 26.5798L306.823 48.537H318.957L307.979 122.498H319.808C327.92 122.498 334.778 116.491 335.846 108.449L343.804 48.537H366.339L369.228 26.5798H318.957Z" fill="white"/>
<path d="M265.798 26.5798H245.574L259.442 77.428L253.086 122.498H265.061C273.357 122.498 280.309 116.223 281.155 107.97L284.288 77.428L313.179 26.5798H290.066L274.465 53.7374L265.798 26.5798Z" fill="white"/>
<path d="M236.329 26.5798H216.683L208.016 54.3152H222.461L196.459 122.498H234.595C243.531 122.498 250.774 115.254 250.774 106.319V100.541H226.506L236.329 26.5798Z" fill="white"/>
<path d="M138.972 26.5798H168.724L164.68 48.537H140.411L139.255 64.1381C149.987 63.8315 158.553 73.0114 157.505 83.6964L155.95 99.5546C154.674 112.573 143.728 122.498 130.648 122.498H100.541L104.008 99.963H129.432L130.01 87.251L128.618 87.1317C118.285 86.246 110.701 77.0371 111.813 66.7264L113.695 49.2779C115.087 36.3665 125.986 26.5798 138.972 26.5798Z" fill="white"/>
<path d="M0 48.537L2.88911 26.5798H57.3537C67.0901 26.5798 74.621 35.117 73.4062 44.7774L66.1041 102.847C64.6506 114.406 54.8217 123.076 43.1719 123.076H0L9.24514 60.0934H33.5136L28.3132 99.963H41.0253L48.537 49.1148L0 48.537Z" fill="white"/>
<path d="M93.5515 26.5798H108.053L96.9369 110.452C96.0232 117.347 90.1441 122.498 83.1894 122.498H68.1829L79.815 38.5442C80.7652 31.6862 86.628 26.5798 93.5515 26.5798Z" fill="white"/>
<defs>
<linearGradient id="paint0_linear_135_71" x1="192.125" y1="0" x2="192.125" y2="148.5" gradientUnits="userSpaceOnUse">
<stop stop-color="#E89FF8"/>
<stop offset="0.526042" stop-color="#9DFCFE"/>
<stop offset="1" stop-color="#E4F5B4"/>
</linearGradient>
</defs>
</svg>
