<svg width="500" height="500" viewBox="0 0 500 500" fill="none" xmlns="http://www.w3.org/2000/svg">
<mask id="mask0_136_130" style="mask-type:alpha" maskUnits="userSpaceOnUse" x="0" y="0" width="500" height="500">
<path d="M500 500V0L0 500H500Z" fill="#3A3A3A"/>
</mask>
<g mask="url(#mask0_136_130)">
<path d="M73.9188 445.638L53.5978 465.959L82.0871 503.613L97.7195 487.98C100.517 485.183 100.81 480.746 98.404 477.605L96.0401 474.519L84.2786 486.28L79.962 480.636L91.7195 468.878L84.8066 459.853L73.0555 471.604L68.7389 465.959L80.4861 454.212L73.9188 445.638Z" fill="white" fill-opacity="0.1"/>
<path d="M34.2729 485.284L37.6597 497.038L41.8435 492.855L63.5591 522.141L67.6378 518.062C70.4348 515.265 70.728 510.829 68.3237 507.688L50.4102 484.288L58.18 476.518L51.6055 467.951L34.2729 485.284Z" fill="white" fill-opacity="0.1"/>
<path d="M15.9441 503.613L8.97123 510.586L31.2845 523.336L44.6326 541.067L48.7616 536.938C51.622 534.078 51.8553 529.517 49.3016 526.38L39.8512 514.77L32.2806 487.276L24.3116 495.245L28.2961 509.988L15.9441 503.613Z" fill="white" fill-opacity="0.1"/>
<path d="M5.78361 513.773L-0.99006 520.547L5.58439 533.098L10.565 528.118L25.1085 560.591L38.2574 547.443C41.3382 544.362 41.3382 539.367 38.2574 536.286L36.2652 534.294L27.8977 542.661L5.78361 513.773Z" fill="white" fill-opacity="0.1"/>
<path d="M-27.7837 547.341L-17.5256 537.083L-11.3496 546.048L-19.7171 554.415L-14.7366 560.193C-11.1421 556.387 -5.02362 556.599 -1.70074 560.644L3.23093 566.648C7.27939 571.576 6.92748 578.772 2.41746 583.282L-7.96296 593.663L-14.5374 584.698L-5.77148 575.932L-9.95522 571.35L-10.4763 571.788C-14.3443 575.046 -20.1342 574.485 -23.3058 570.547L-28.6731 563.882C-32.6447 558.95 -32.2612 551.818 -27.7837 547.341Z" fill="white" fill-opacity="0.1"/>
<path d="M-68.1291 602.827L-74.7036 594.261L-55.9249 575.482C-52.5679 572.125 -47.0277 572.472 -44.1158 576.221L-26.6119 598.761C-23.1277 603.247 -23.5271 609.626 -27.5439 613.642L-42.429 628.527L-60.957 603.624L-52.5895 595.257L-40.636 610.796L-36.253 606.413L-51.1949 586.292L-68.1291 602.827Z" fill="white" fill-opacity="0.1"/>
<path d="M-43.4443 563.001L-38.4445 558.002L-13.3588 590.752C-11.2967 593.444 -11.5476 597.248 -13.9455 599.645L-19.1196 604.82L-44.0552 571.863C-46.0922 569.17 -45.8314 565.388 -43.4443 563.001Z" fill="white" fill-opacity="0.1"/>
<path d="M144.904 356.324L137.533 363.695L158.252 397.165L163.432 391.985L183.952 419.678L166.421 380.231L161.041 385.61L144.904 356.324Z" fill="white" fill-opacity="0.1"/>
<path d="M230.571 288.986L210.25 309.307L238.74 346.96L254.372 331.328C257.17 328.53 257.462 324.093 255.057 320.953L252.693 317.866L240.931 329.628L236.614 323.983L248.372 312.226L241.459 303.2L229.708 314.952L225.391 309.307L237.139 297.56L230.571 288.986Z" fill="white" fill-opacity="0.1"/>
<path d="M190.925 328.632L194.312 340.386L198.496 336.202L220.212 365.488L224.29 361.41C227.087 358.613 227.38 354.177 224.976 351.036L207.063 327.636L214.832 319.866L208.258 311.299L190.925 328.632Z" fill="white" fill-opacity="0.1"/>
<path d="M172.597 346.96L165.624 353.933L187.937 366.684L201.285 384.415L205.414 380.286C208.274 377.425 208.508 372.865 205.954 369.728L196.504 358.117L188.933 330.624L180.964 338.593L184.949 353.336L172.597 346.96Z" fill="white" fill-opacity="0.1"/>
<path d="M162.436 357.121L155.662 363.895L162.237 376.446L167.217 371.465L181.761 403.939L194.91 390.79C197.991 387.709 197.991 382.714 194.91 379.633L192.918 377.641L184.55 386.009L162.436 357.121Z" fill="white" fill-opacity="0.1"/>
<path d="M128.869 390.688L139.127 380.43L145.303 389.395L136.935 397.763L141.916 403.541C145.51 399.735 151.629 399.946 154.952 403.992L159.883 409.995C163.932 414.924 163.58 422.12 159.07 426.63L148.69 437.01L142.115 428.045L150.881 419.279L146.697 414.697L146.176 415.136C142.308 418.393 136.518 417.833 133.347 413.895L127.979 407.23C124.008 402.298 124.391 395.166 128.869 390.688Z" fill="white" fill-opacity="0.1"/>
<path d="M88.5233 446.175L81.9489 437.608L100.728 418.829C104.085 415.472 109.625 415.819 112.537 419.569L130.041 442.108C133.525 446.595 133.125 452.973 129.109 456.99L114.223 471.875L95.6955 446.972L104.063 438.604L116.016 454.144L120.399 449.761L105.458 429.639L88.5233 446.175Z" fill="white" fill-opacity="0.1"/>
<path d="M113.208 406.349L118.208 401.349L143.294 434.1C145.356 436.792 145.105 440.595 142.707 442.993L137.533 448.167L112.597 415.21C110.56 412.518 110.821 408.736 113.208 406.349Z" fill="white" fill-opacity="0.1"/>
<path d="M301.557 199.672L294.185 207.043L314.905 240.513L320.085 235.333L340.605 263.025L323.073 223.579L317.694 228.958L301.557 199.672Z" fill="white" fill-opacity="0.1"/>
<path d="M387.224 132.333L366.903 152.654L395.392 190.308L411.024 174.676C413.822 171.878 414.115 167.441 411.709 164.3L409.345 161.214L397.583 172.975L393.267 167.331L405.024 155.573L398.112 146.548L386.36 158.299L382.044 152.654L393.791 140.907L387.224 132.333Z" fill="white" fill-opacity="0.1"/>
<path d="M347.578 171.979L350.965 183.734L355.148 179.55L376.864 208.836L380.943 204.757C383.74 201.96 384.033 197.524 381.629 194.384L363.715 170.983L371.485 163.213L364.91 154.647L347.578 171.979Z" fill="white" fill-opacity="0.1"/>
<path d="M329.249 190.308L322.276 197.281L344.589 210.031L357.938 227.762L362.066 223.633C364.927 220.773 365.16 216.212 362.607 213.075L353.156 201.465L345.586 173.971L337.617 181.94L341.601 196.683L329.249 190.308Z" fill="white" fill-opacity="0.1"/>
<path d="M319.089 200.468L312.315 207.242L318.889 219.793L323.87 214.813L338.413 247.287L351.562 234.138C354.643 231.057 354.643 226.062 351.562 222.981L349.57 220.989L341.203 229.356L319.089 200.468Z" fill="white" fill-opacity="0.1"/>
<path d="M285.521 234.036L295.779 223.778L301.955 232.743L293.588 241.11L298.568 246.888C302.163 243.082 308.281 243.294 311.604 247.339L316.536 253.343C320.584 258.271 320.232 265.468 315.722 269.978L305.342 280.358L298.768 271.393L307.533 262.627L303.35 258.045L302.829 258.484C298.961 261.741 293.171 261.18 289.999 257.242L284.632 250.577C280.66 245.645 281.044 238.513 285.521 234.036Z" fill="white" fill-opacity="0.1"/>
<path d="M245.176 289.522L238.601 280.956L257.38 262.177C260.737 258.82 266.277 259.167 269.189 262.917L286.693 285.456C290.177 289.942 289.778 296.321 285.761 300.337L270.876 315.223L252.348 290.319L260.715 281.952L272.669 297.491L277.052 293.108L262.11 272.987L245.176 289.522Z" fill="white" fill-opacity="0.1"/>
<path d="M269.861 249.696L274.86 244.697L299.946 277.447C302.008 280.14 301.757 283.943 299.359 286.341L294.185 291.515L269.25 258.558C267.213 255.866 267.474 252.084 269.861 249.696Z" fill="white" fill-opacity="0.1"/>
<path d="M458.209 43.0192L450.838 50.3905L471.557 83.8604L476.737 78.6806L497.257 106.373L479.725 66.9262L474.346 72.3053L458.209 43.0192Z" fill="white" fill-opacity="0.1"/>
<path d="M543.876 -24.3191L523.555 -3.99812L552.044 33.6555L567.677 18.0231C570.474 15.2256 570.767 10.7885 568.361 7.6477L565.997 4.56139L554.236 16.3229L549.919 10.6782L561.677 -1.07934L554.764 -10.1045L543.013 1.64662L538.696 -3.99812L550.443 -15.7452L543.876 -24.3191Z" fill="white" fill-opacity="0.1"/>
<path d="M504.23 15.3268L507.617 27.0811L511.801 22.8974L533.516 52.1835L537.595 48.1048C540.392 45.3079 540.685 40.872 538.281 37.7312L520.368 14.3306L528.137 6.56084L521.563 -2.00586L504.23 15.3268Z" fill="white" fill-opacity="0.1"/>
<path d="M485.902 33.6555L478.929 40.6284L501.242 53.3789L514.59 71.11L518.719 66.981C521.579 64.1206 521.813 59.56 519.259 56.4227L509.809 44.8122L502.238 17.319L494.269 25.2881L498.254 40.0308L485.902 33.6555Z" fill="white" fill-opacity="0.1"/>
<path d="M475.741 43.8161L468.967 50.5897L475.542 63.141L480.522 58.1603L495.066 90.6341L508.215 77.4852C511.296 74.4044 511.296 69.4094 508.215 66.3286L506.223 64.3363L497.855 72.7038L475.741 43.8161Z" fill="white" fill-opacity="0.1"/>
<path d="M442.174 77.3834L452.432 67.1253L458.608 76.0904L450.24 84.4579L455.221 90.2356C458.815 86.4297 464.934 86.6414 468.257 90.6866L473.188 96.6904C477.237 101.619 476.885 108.815 472.375 113.325L461.994 123.706L455.42 114.74L464.186 105.974L460.002 101.392L459.481 101.831C455.613 105.088 449.823 104.528 446.652 100.59L441.284 93.9248C437.313 88.9931 437.696 81.8609 442.174 77.3834Z" fill="white" fill-opacity="0.1"/>
<path d="M401.828 132.87L395.254 124.303L414.033 105.525C417.39 102.168 422.93 102.515 425.842 106.264L443.346 128.803C446.83 133.29 446.43 139.668 442.414 143.685L427.528 158.57L409 133.667L417.368 125.299L429.321 140.839L433.704 136.456L418.762 116.334L401.828 132.87Z" fill="white" fill-opacity="0.1"/>
<path d="M426.513 93.0439L431.513 88.0442L456.599 120.795C458.661 123.487 458.41 127.29 456.012 129.688L450.838 134.862L425.902 101.905C423.865 99.2131 424.126 95.4311 426.513 93.0439Z" fill="white" fill-opacity="0.1"/>
<path d="M247.465 458.884L240.093 466.256L260.813 499.726L265.993 494.546L286.513 522.238L268.981 482.791L263.602 488.171L247.465 458.884Z" fill="white" fill-opacity="0.1"/>
<path d="M333.132 391.546L312.811 411.867L341.3 449.521L356.932 433.888C359.73 431.091 360.023 426.654 357.617 423.513L355.253 420.427L343.491 432.188L339.175 426.543L350.932 414.786L344.019 405.761L332.268 417.512L327.952 411.867L339.699 400.12L333.132 391.546Z" fill="white" fill-opacity="0.1"/>
<path d="M293.486 431.192L296.872 442.946L301.056 438.763L322.772 468.049L326.851 463.97C329.648 461.173 329.941 456.737 327.536 453.596L309.623 430.196L317.393 422.426L310.818 413.859L293.486 431.192Z" fill="white" fill-opacity="0.1"/>
<path d="M275.157 449.521L268.184 456.494L290.497 469.244L303.845 486.975L307.974 482.846C310.835 479.986 311.068 475.425 308.514 472.288L299.064 460.677L291.493 433.184L283.524 441.153L287.509 455.896L275.157 449.521Z" fill="white" fill-opacity="0.1"/>
<path d="M264.996 459.681L258.223 466.455L264.797 479.006L269.778 474.026L284.321 506.499L297.47 493.35C300.551 490.27 300.551 485.275 297.47 482.194L295.478 480.202L287.11 488.569L264.996 459.681Z" fill="white" fill-opacity="0.1"/>
<path d="M231.429 493.249L241.687 482.99L247.863 491.956L239.496 500.323L244.476 506.101C248.071 502.295 254.189 502.507 257.512 506.552L262.444 512.556C266.492 517.484 266.14 524.68 261.63 529.19L251.25 539.571L244.675 530.606L253.441 521.84L249.258 517.258L248.736 517.696C244.868 520.954 239.079 520.393 235.907 516.455L230.54 509.79C226.568 504.858 226.952 497.726 231.429 493.249Z" fill="white" fill-opacity="0.1"/>
<path d="M191.084 548.735L184.509 540.168L203.288 521.39C206.645 518.033 212.185 518.38 215.097 522.129L232.601 544.669C236.085 549.155 235.686 555.533 231.669 559.55L216.784 574.435L198.256 549.532L206.623 541.165L218.577 556.704L222.96 552.321L208.018 532.199L191.084 548.735Z" fill="white" fill-opacity="0.1"/>
<path d="M215.768 508.909L220.768 503.909L245.854 536.66C247.916 539.352 247.665 543.155 245.267 545.553L240.093 550.727L215.158 517.771C213.121 515.078 213.381 511.296 215.768 508.909Z" fill="white" fill-opacity="0.1"/>
<path d="M404.117 302.232L396.746 309.603L417.465 343.073L422.645 337.893L443.165 365.586L425.633 326.139L420.254 331.518L404.117 302.232Z" fill="white" fill-opacity="0.1"/>
<path d="M489.784 234.894L469.463 255.215L497.952 292.868L513.585 277.236C516.382 274.438 516.675 270.001 514.269 266.86L511.905 263.774L500.144 275.536L495.827 269.891L507.585 258.133L500.672 249.108L488.921 260.859L484.604 255.215L496.351 243.468L489.784 234.894Z" fill="white" fill-opacity="0.1"/>
<path d="M450.138 274.54L453.525 286.294L457.709 282.11L479.424 311.396L483.503 307.318C486.3 304.521 486.593 300.085 484.189 296.944L466.276 273.543L474.045 265.774L467.471 257.207L450.138 274.54Z" fill="white" fill-opacity="0.1"/>
<path d="M431.809 292.868L424.837 299.841L447.15 312.592L460.498 330.323L464.627 326.194C467.487 323.333 467.721 318.773 465.167 315.635L455.717 304.025L448.146 276.532L440.177 284.501L444.161 299.244L431.809 292.868Z" fill="white" fill-opacity="0.1"/>
<path d="M421.649 303.029L414.875 309.802L421.45 322.354L426.43 317.373L440.974 349.847L454.123 336.698C457.204 333.617 457.204 328.622 454.123 325.541L452.131 323.549L443.763 331.917L421.649 303.029Z" fill="white" fill-opacity="0.1"/>
<path d="M388.082 336.596L398.34 326.338L404.516 335.303L396.148 343.671L401.129 349.448C404.723 345.642 410.842 345.854 414.165 349.899L419.096 355.903C423.145 360.832 422.793 368.028 418.283 372.538L407.902 382.918L401.328 373.953L410.094 365.187L405.91 360.605L405.389 361.044C401.521 364.301 395.731 363.741 392.56 359.802L387.192 353.138C383.221 348.206 383.604 341.074 388.082 336.596Z" fill="white" fill-opacity="0.1"/>
<path d="M347.736 392.083L341.162 383.516L359.941 364.737C363.298 361.38 368.838 361.727 371.75 365.477L389.253 388.016C392.738 392.503 392.338 398.881 388.321 402.898L373.436 417.783L354.908 392.88L363.276 384.512L375.229 400.052L379.612 395.669L364.67 375.547L347.736 392.083Z" fill="white" fill-opacity="0.1"/>
<path d="M372.421 352.257L377.421 347.257L402.507 380.008C404.569 382.7 404.318 386.503 401.92 388.901L396.746 394.075L371.81 361.118C369.773 358.426 370.034 354.644 372.421 352.257Z" fill="white" fill-opacity="0.1"/>
<path d="M646.437 78.2412L626.115 98.5622L654.605 136.216L670.237 120.583C673.035 117.786 673.327 113.349 670.922 110.208L668.558 107.122L656.796 118.883L652.48 113.239L664.237 101.481L657.324 92.4558L645.573 104.207L641.257 98.5622L653.004 86.8151L646.437 78.2412Z" fill="white" fill-opacity="0.1"/>
<path d="M606.791 117.887L610.177 129.641L614.361 125.458L636.077 154.744L640.156 150.665C642.952 147.868 643.246 143.432 640.841 140.291L622.928 116.891L630.698 109.121L624.123 100.554L606.791 117.887Z" fill="white" fill-opacity="0.1"/>
<path d="M588.462 136.216L581.489 143.189L603.802 155.939L617.15 173.67L621.279 169.541C624.14 166.681 624.373 162.12 621.819 158.983L612.369 147.373L604.798 119.879L596.829 127.848L600.814 142.591L588.462 136.216Z" fill="white" fill-opacity="0.1"/>
<path d="M578.301 146.376L571.528 153.15L578.102 165.701L583.083 160.721L597.626 193.194L610.775 180.046C613.856 176.965 613.856 171.97 610.775 168.889L608.783 166.897L600.415 175.264L578.301 146.376Z" fill="white" fill-opacity="0.1"/>
<path d="M544.734 179.944L554.992 169.686L561.168 178.651L552.801 187.018L557.781 192.796C561.376 188.99 567.494 189.202 570.817 193.247L575.749 199.251C579.797 204.179 579.445 211.375 574.935 215.885L564.555 226.266L557.98 217.301L566.746 208.535L562.562 203.953L562.041 204.391C558.173 207.649 552.384 207.088 549.212 203.15L543.845 196.485C539.873 191.553 540.256 184.421 544.734 179.944Z" fill="white" fill-opacity="0.1"/>
<path d="M504.389 235.43L497.814 226.864L516.593 208.085C519.95 204.728 525.49 205.075 528.402 208.824L545.906 231.364C549.39 235.85 548.991 242.229 544.974 246.245L530.089 261.13L511.561 236.227L519.928 227.86L531.882 243.399L536.265 239.016L521.323 218.895L504.389 235.43Z" fill="white" fill-opacity="0.1"/>
<path d="M529.073 195.604L534.073 190.604L559.159 223.355C561.221 226.047 560.97 229.851 558.572 232.248L553.398 237.423L528.462 204.466C526.426 201.773 526.686 197.991 529.073 195.604Z" fill="white" fill-opacity="0.1"/>
<path d="M435.626 494.041L415.305 514.362L443.794 552.015L459.427 536.383C462.224 533.585 462.517 529.148 460.111 526.007L457.747 522.921L445.986 534.683L441.669 529.038L453.427 517.28L446.514 508.255L434.763 520.006L430.446 514.362L442.193 502.615L435.626 494.041Z" fill="white" fill-opacity="0.1"/>
<path d="M395.98 533.687L399.367 545.441L403.551 541.257L425.266 570.543L429.345 566.465C432.142 563.668 432.435 559.232 430.031 556.091L412.117 532.69L419.887 524.921L413.313 516.354L395.98 533.687Z" fill="white" fill-opacity="0.1"/>
<path d="M377.651 552.015L370.679 558.988L392.992 571.739L406.34 589.47L410.469 585.341C413.329 582.48 413.563 577.92 411.009 574.782L401.558 563.172L393.988 535.679L386.019 543.648L390.003 558.391L377.651 552.015Z" fill="white" fill-opacity="0.1"/>
<path d="M367.491 562.176L360.717 568.949L367.292 581.501L372.272 576.52L386.816 608.994L399.965 595.845C403.046 592.764 403.046 587.769 399.965 584.688L397.972 582.696L389.605 591.064L367.491 562.176Z" fill="white" fill-opacity="0.1"/>
<path d="M333.924 595.743L344.182 585.485L350.358 594.45L341.99 602.818L346.971 608.595C350.565 604.789 356.684 605.001 360.007 609.046L364.938 615.05C368.987 619.979 368.635 627.175 364.125 631.685L353.744 642.065L347.17 633.1L355.936 624.334L351.752 619.752L351.231 620.191C347.363 623.448 341.573 622.888 338.401 618.949L333.034 612.285C329.063 607.353 329.446 600.221 333.924 595.743Z" fill="white" fill-opacity="0.1"/>
<path d="M293.578 651.23L287.004 642.663L305.782 623.884C309.139 620.527 314.68 620.874 317.591 624.624L335.095 647.163C338.58 651.65 338.18 658.028 334.163 662.045L319.278 676.93L300.75 652.027L309.118 643.659L321.071 659.199L325.454 654.816L310.512 634.694L293.578 651.23Z" fill="white" fill-opacity="0.1"/>
<path d="M318.263 611.404L323.263 606.404L348.348 639.155C350.411 641.847 350.16 645.65 347.762 648.048L342.588 653.222L317.652 620.265C315.615 617.573 315.876 613.791 318.263 611.404Z" fill="white" fill-opacity="0.1"/>
<path d="M506.611 404.726L499.24 412.098L519.96 445.568L525.139 440.388L545.66 468.08L528.128 428.633L522.749 434.013L506.611 404.726Z" fill="white" fill-opacity="0.1"/>
<path d="M592.279 337.388L571.958 357.709L600.447 395.363L616.079 379.73C618.877 376.933 619.17 372.496 616.764 369.355L614.4 366.269L602.638 378.03L598.322 372.385L610.079 360.628L603.166 351.603L591.415 363.354L587.099 357.709L598.846 345.962L592.279 337.388Z" fill="white" fill-opacity="0.1"/>
<path d="M552.633 377.034L556.019 388.788L560.203 384.605L581.919 413.891L585.998 409.812C588.795 407.015 589.088 402.579 586.683 399.438L568.77 376.038L576.54 368.268L569.965 359.701L552.633 377.034Z" fill="white" fill-opacity="0.1"/>
<path d="M534.304 395.363L527.331 402.336L549.644 415.086L562.992 432.817L567.121 428.688C569.982 425.828 570.215 421.267 567.661 418.13L558.211 406.519L550.64 379.026L542.671 386.995L546.656 401.738L534.304 395.363Z" fill="white" fill-opacity="0.1"/>
<path d="M524.143 405.523L517.37 412.297L523.944 424.848L528.925 419.868L543.468 452.341L556.617 439.192C559.698 436.112 559.698 431.117 556.617 428.036L554.625 426.044L546.257 434.411L524.143 405.523Z" fill="white" fill-opacity="0.1"/>
<path d="M490.576 439.091L500.834 428.832L507.01 437.798L498.643 446.165L503.623 451.943C507.218 448.137 513.336 448.349 516.659 452.394L521.591 458.398C525.639 463.326 525.287 470.522 520.777 475.032L510.397 485.413L503.822 476.448L512.588 467.682L508.405 463.1L507.883 463.538C504.015 466.796 498.226 466.235 495.054 462.297L489.687 455.632C485.715 450.7 486.099 443.568 490.576 439.091Z" fill="white" fill-opacity="0.1"/>
<path d="M450.231 494.577L443.656 486.01L462.435 467.232C465.792 463.875 471.332 464.222 474.244 467.971L491.748 490.511C495.232 494.997 494.833 501.375 490.816 505.392L475.931 520.277L457.403 495.374L465.77 487.007L477.724 502.546L482.107 498.163L467.165 478.041L450.231 494.577Z" fill="white" fill-opacity="0.1"/>
<path d="M474.915 454.751L479.915 449.751L505.001 482.502C507.063 485.194 506.812 488.997 504.414 491.395L499.24 496.569L474.304 463.613C472.268 460.92 472.528 457.138 474.915 454.751Z" fill="white" fill-opacity="0.1"/>
<path d="M122.128 481.819L114.756 489.191L135.476 522.661L140.656 517.481L161.176 545.173L143.644 505.726L138.265 511.106L122.128 481.819Z" fill="white" fill-opacity="0.1"/>
<path d="M207.795 414.481L187.474 434.802L215.963 472.456L231.595 456.823C234.393 454.026 234.686 449.589 232.28 446.448L229.916 443.362L218.154 455.123L213.838 449.478L225.595 437.721L218.682 428.696L206.931 440.447L202.615 434.802L214.362 423.055L207.795 414.481Z" fill="white" fill-opacity="0.1"/>
<path d="M168.149 454.127L171.535 465.881L175.719 461.698L197.435 490.984L201.514 486.905C204.31 484.108 204.604 479.672 202.199 476.531L184.286 453.131L192.056 445.361L185.481 436.794L168.149 454.127Z" fill="white" fill-opacity="0.1"/>
<path d="M149.82 472.456L142.847 479.429L165.16 492.179L178.508 509.91L182.637 505.781C185.498 502.921 185.731 498.36 183.177 495.223L173.727 483.612L166.156 456.119L158.187 464.088L162.172 478.831L149.82 472.456Z" fill="white" fill-opacity="0.1"/>
<path d="M139.659 482.616L132.886 489.39L139.46 501.941L144.441 496.961L158.984 529.434L172.133 516.285C175.214 513.205 175.214 508.21 172.133 505.129L170.141 503.137L161.773 511.504L139.659 482.616Z" fill="white" fill-opacity="0.1"/>
<path d="M106.092 516.184L116.35 505.925L122.526 514.891L114.159 523.258L119.139 529.036C122.734 525.23 128.852 525.442 132.175 529.487L137.107 535.491C141.155 540.419 140.803 547.615 136.293 552.125L125.913 562.506L119.338 553.541L128.104 544.775L123.921 540.193L123.399 540.631C119.531 543.889 113.742 543.328 110.57 539.39L105.203 532.725C101.231 527.793 101.615 520.661 106.092 516.184Z" fill="white" fill-opacity="0.1"/>
<path d="M65.7466 571.67L59.1722 563.103L77.9509 544.325C81.3079 540.968 86.848 541.315 89.7599 545.064L107.264 567.604C110.748 572.09 110.349 578.468 106.332 582.485L91.4467 597.37L72.9187 572.467L81.2862 564.1L93.2398 579.639L97.6227 575.256L82.6808 555.134L65.7466 571.67Z" fill="white" fill-opacity="0.1"/>
<path d="M90.4315 531.844L95.4312 526.844L120.517 559.595C122.579 562.287 122.328 566.09 119.93 568.488L114.756 573.662L89.8205 540.706C87.7836 538.013 88.0443 534.231 90.4315 531.844Z" fill="white" fill-opacity="0.1"/>
<path d="M278.78 325.167L271.409 332.538L292.128 366.008L297.308 360.828L317.828 388.521L300.296 349.074L294.917 354.453L278.78 325.167Z" fill="white" fill-opacity="0.1"/>
<path d="M364.447 257.829L344.126 278.15L372.615 315.803L388.248 300.171C391.045 297.373 391.338 292.936 388.932 289.795L386.568 286.709L374.807 298.471L370.49 292.826L382.248 281.068L375.335 272.043L363.584 283.794L359.267 278.15L371.014 266.402L364.447 257.829Z" fill="white" fill-opacity="0.1"/>
<path d="M324.801 297.474L328.188 309.229L332.372 305.045L354.087 334.331L358.166 330.253C360.963 327.456 361.256 323.02 358.852 319.879L340.938 296.478L348.708 288.709L342.134 280.142L324.801 297.474Z" fill="white" fill-opacity="0.1"/>
<path d="M306.472 315.803L299.5 322.776L321.813 335.527L335.161 353.258L339.29 349.129C342.15 346.268 342.384 341.708 339.83 338.57L330.38 326.96L322.809 299.467L314.84 307.436L318.824 322.178L306.472 315.803Z" fill="white" fill-opacity="0.1"/>
<path d="M296.312 325.964L289.538 332.737L296.113 345.289L301.093 340.308L315.637 372.782L328.786 359.633C331.867 356.552 331.867 351.557 328.786 348.476L326.793 346.484L318.426 354.851L296.312 325.964Z" fill="white" fill-opacity="0.1"/>
<path d="M262.745 359.531L273.003 349.273L279.179 358.238L270.811 366.606L275.792 372.383C279.386 368.577 285.505 368.789 288.828 372.834L293.759 378.838C297.808 383.767 297.456 390.963 292.946 395.473L282.565 405.853L275.991 396.888L284.757 388.122L280.573 383.54L280.052 383.979C276.184 387.236 270.394 386.676 267.222 382.737L261.855 376.073C257.884 371.141 258.267 364.009 262.745 359.531Z" fill="white" fill-opacity="0.1"/>
<path d="M222.399 415.018L215.825 406.451L234.603 387.672C237.96 384.315 243.501 384.662 246.413 388.412L263.916 410.951C267.401 415.438 267.001 421.816 262.984 425.833L248.099 440.718L229.571 415.815L237.939 407.447L249.892 422.987L254.275 418.604L239.333 398.482L222.399 415.018Z" fill="white" fill-opacity="0.1"/>
<path d="M247.084 375.192L252.084 370.192L277.17 402.943C279.232 405.635 278.981 409.438 276.583 411.836L271.409 417.01L246.473 384.053C244.436 381.361 244.697 377.579 247.084 375.192Z" fill="white" fill-opacity="0.1"/>
<path d="M435.432 168.514L428.061 175.886L448.78 209.356L453.96 204.176L474.481 231.868L456.949 192.422L451.57 197.801L435.432 168.514Z" fill="white" fill-opacity="0.1"/>
<path d="M521.099 101.176L500.778 121.497L529.268 159.151L544.9 143.518C547.698 140.721 547.99 136.284 545.585 133.143L543.221 130.057L531.459 141.818L527.143 136.173L538.9 124.416L531.987 115.391L520.236 127.142L515.92 121.497L527.667 109.75L521.099 101.176Z" fill="white" fill-opacity="0.1"/>
<path d="M481.454 140.822L484.84 152.576L489.024 148.393L510.74 177.679L514.818 173.6C517.615 170.803 517.909 166.367 515.504 163.226L497.591 139.826L505.361 132.056L498.786 123.489L481.454 140.822Z" fill="white" fill-opacity="0.1"/>
<path d="M463.125 159.151L456.152 166.124L478.465 178.874L491.813 196.605L495.942 192.476C498.803 189.616 499.036 185.055 496.482 181.918L487.032 170.308L479.461 142.814L471.492 150.783L475.477 165.526L463.125 159.151Z" fill="white" fill-opacity="0.1"/>
<path d="M452.964 169.311L446.191 176.085L452.765 188.636L457.746 183.656L472.289 216.129L485.438 202.981C488.519 199.9 488.519 194.905 485.438 191.824L483.446 189.832L475.078 198.199L452.964 169.311Z" fill="white" fill-opacity="0.1"/>
<path d="M419.397 202.879L429.655 192.621L435.831 201.586L427.464 209.953L432.444 215.731C436.039 211.925 442.157 212.137 445.48 216.182L450.412 222.186C454.46 227.114 454.108 234.31 449.598 238.82L439.218 249.201L432.643 240.236L441.409 231.47L437.225 226.888L436.704 227.326C432.836 230.584 427.046 230.023 423.875 226.085L418.508 219.42C414.536 214.488 414.919 207.356 419.397 202.879Z" fill="white" fill-opacity="0.1"/>
<path d="M379.052 258.365L372.477 249.799L391.256 231.02C394.613 227.663 400.153 228.01 403.065 231.759L420.569 254.299C424.053 258.785 423.654 265.164 419.637 269.18L404.752 284.065L386.224 259.162L394.591 250.795L406.545 266.334L410.928 261.951L395.986 241.83L379.052 258.365Z" fill="white" fill-opacity="0.1"/>
<path d="M403.736 218.539L408.736 213.539L433.822 246.29C435.884 248.982 435.633 252.786 433.235 255.183L428.061 260.358L403.125 227.401C401.088 224.708 401.349 220.926 403.736 218.539Z" fill="white" fill-opacity="0.1"/>
<path d="M381.275 427.661L373.903 435.033L394.623 468.503L399.803 463.323L420.323 491.015L402.791 451.568L397.412 456.947L381.275 427.661Z" fill="white" fill-opacity="0.1"/>
<path d="M466.942 360.323L446.621 380.644L475.11 418.298L490.742 402.665C493.54 399.868 493.833 395.431 491.427 392.29L489.063 389.203L477.301 400.965L472.985 395.32L484.742 383.563L477.829 374.538L466.078 386.289L461.762 380.644L473.509 368.897L466.942 360.323Z" fill="white" fill-opacity="0.1"/>
<path d="M427.296 399.969L430.683 411.723L434.866 407.539L456.582 436.826L460.661 432.747C463.458 429.95 463.751 425.514 461.346 422.373L443.433 398.973L451.203 391.203L444.628 382.636L427.296 399.969Z" fill="white" fill-opacity="0.1"/>
<path d="M408.967 418.298L401.994 425.271L424.307 438.021L437.655 455.752L441.784 451.623C444.645 448.763 444.878 444.202 442.324 441.065L432.874 429.454L425.303 401.961L417.334 409.93L421.319 424.673L408.967 418.298Z" fill="white" fill-opacity="0.1"/>
<path d="M398.806 428.458L392.033 435.232L398.607 447.783L403.588 442.802L418.131 475.276L431.28 462.127C434.361 459.046 434.361 454.051 431.28 450.971L429.288 448.978L420.92 457.346L398.806 428.458Z" fill="white" fill-opacity="0.1"/>
<path d="M365.239 462.025L375.497 451.767L381.673 460.733L373.306 469.1L378.286 474.878C381.881 471.072 387.999 471.283 391.322 475.329L396.254 481.333C400.302 486.261 399.95 493.457 395.44 497.967L385.06 508.348L378.485 499.383L387.251 490.617L383.068 486.034L382.546 486.473C378.679 489.73 372.889 489.17 369.717 485.232L364.35 478.567C360.378 473.635 360.762 466.503 365.239 462.025Z" fill="white" fill-opacity="0.1"/>
<path d="M324.894 517.512L318.319 508.945L337.098 490.167C340.455 486.81 345.995 487.157 348.907 490.906L366.411 513.446C369.895 517.932 369.496 524.31 365.479 528.327L350.594 543.212L332.066 518.309L340.433 509.941L352.387 525.481L356.77 521.098L341.828 500.976L324.894 517.512Z" fill="white" fill-opacity="0.1"/>
<path d="M349.579 477.686L354.578 472.686L379.664 505.437C381.726 508.129 381.475 511.932 379.077 514.33L373.903 519.504L348.968 486.547C346.931 483.855 347.191 480.073 349.579 477.686Z" fill="white" fill-opacity="0.1"/>
<path d="M623.594 203.671L603.273 223.992L631.762 261.645L647.395 246.013C650.192 243.215 650.485 238.778 648.079 235.637L645.715 232.551L633.954 244.313L629.637 238.668L641.395 226.91L634.482 217.885L622.731 229.636L618.414 223.992L630.161 212.244L623.594 203.671Z" fill="white" fill-opacity="0.1"/>
<path d="M583.948 243.316L587.335 255.071L591.519 250.887L613.234 280.173L617.313 276.095C620.11 273.298 620.403 268.862 617.999 265.721L600.085 242.32L607.855 234.551L601.281 225.984L583.948 243.316Z" fill="white" fill-opacity="0.1"/>
<path d="M565.619 261.645L558.646 268.618L580.96 281.369L594.308 299.1L598.437 294.971C601.297 292.11 601.53 287.55 598.977 284.412L589.526 272.802L581.956 245.309L573.987 253.278L577.971 268.02L565.619 261.645Z" fill="white" fill-opacity="0.1"/>
<path d="M555.459 271.806L548.685 278.579L555.26 291.131L560.24 286.15L574.784 318.624L587.933 305.475C591.013 302.394 591.013 297.399 587.933 294.318L585.94 292.326L577.573 300.694L555.459 271.806Z" fill="white" fill-opacity="0.1"/>
<path d="M521.891 305.373L532.15 295.115L538.326 304.08L529.958 312.448L534.939 318.225C538.533 314.419 544.652 314.631 547.974 318.676L552.906 324.68C556.955 329.609 556.603 336.805 552.093 341.315L541.712 351.695L535.138 342.73L543.904 333.964L539.72 329.382L539.199 329.821C535.331 333.078 529.541 332.518 526.369 328.579L521.002 321.915C517.03 316.983 517.414 309.851 521.891 305.373Z" fill="white" fill-opacity="0.1"/>
<path d="M481.546 360.86L474.972 352.293L493.75 333.514C497.107 330.157 502.647 330.504 505.559 334.254L523.063 356.793C526.547 361.28 526.148 367.658 522.131 371.675L507.246 386.56L488.718 361.657L497.086 353.289L509.039 368.829L513.422 364.446L498.48 344.324L481.546 360.86Z" fill="white" fill-opacity="0.1"/>
<path d="M506.231 321.034L511.231 316.034L536.316 348.785C538.378 351.477 538.128 355.28 535.73 357.678L530.556 362.852L505.62 329.895C503.583 327.203 503.844 323.421 506.231 321.034Z" fill="white" fill-opacity="0.1"/>
</g>
</svg>
